<mxfile host="app.diagrams.net" modified="2023-06-02T23:01:45.367Z" agent="Mozilla/5.0 (Windows NT 10.0; Win64; x64) AppleWebKit/537.36 (KHTML, like Gecko) Chrome/114.0.0.0 Safari/537.36" version="21.3.7" etag="Bm-7bUyHH-613FtUrhW8" type="github">
  <diagram name="PÃ¡gina-1" id="pcblEM-6_ica5UQUJ6CN">
    <mxGraphModel>
      <root>
        <mxCell id="0" />
        <mxCell id="1" parent="0" />
      </root>
    </mxGraphModel>
  </diagram>
</mxfile>
